<svg xmlns="http://www.w3.org/2000/svg" viewBox="0 0 150.82 24.45"><defs><style>.cls-1{fill:#92bbbf;}.cls-2{fill:#eee;}</style></defs><g id="Capa_2" data-name="Capa 2"><g id="Capa_1-2" data-name="Capa 1"><path class="cls-1" d="M5.86,6.2l2.53-.15A1.82,1.82,0,0,0,8.72,7a1.39,1.39,0,0,0,1.17.53,1.3,1.3,0,0,0,.88-.27.82.82,0,0,0,.31-.62.8.8,0,0,0-.3-.6,3.39,3.39,0,0,0-1.36-.49,5.84,5.84,0,0,1-2.49-1,2.08,2.08,0,0,1-.75-1.66,2.24,2.24,0,0,1,.39-1.25A2.5,2.5,0,0,1,7.72.65,5.31,5.31,0,0,1,9.83.31a4.29,4.29,0,0,1,2.51.61,2.64,2.64,0,0,1,1,2L10.87,3a1.4,1.4,0,0,0-.42-.85,1.36,1.36,0,0,0-.88-.26,1.08,1.08,0,0,0-.7.2.61.61,0,0,0-.23.47A.47.47,0,0,0,8.83,3a2.12,2.12,0,0,0,.89.32,11.14,11.14,0,0,1,2.5.76,2.57,2.57,0,0,1,1.09,1,2.39,2.39,0,0,1,.34,1.27,2.79,2.79,0,0,1-.45,1.53,2.89,2.89,0,0,1-1.28,1,5.19,5.19,0,0,1-2.07.36,4.26,4.26,0,0,1-3-.84A3.33,3.33,0,0,1,5.86,6.2Z"/><path class="cls-1" d="M14.39.46h8.07V2.58H19.75V9.05H17.09V2.58h-2.7Z"/><path class="cls-1" d="M29.25.46h2.64V5.57A4.26,4.26,0,0,1,31.66,7a3.05,3.05,0,0,1-.75,1.18,2.94,2.94,0,0,1-1.06.72A5.43,5.43,0,0,1,28,9.19c-.42,0-.87,0-1.37-.08a3.79,3.79,0,0,1-1.24-.35A3.29,3.29,0,0,1,24.47,8a2.76,2.76,0,0,1-.56-1,5,5,0,0,1-.25-1.46V.46h2.65V5.7a1.48,1.48,0,0,0,.39,1.09,1.43,1.43,0,0,0,1.08.4,1.46,1.46,0,0,0,1.08-.39,1.49,1.49,0,0,0,.39-1.1Z"/><path class="cls-1" d="M33.69.46h3.94a4.69,4.69,0,0,1,1.88.31,3.08,3.08,0,0,1,1.19.91,3.8,3.8,0,0,1,.68,1.38,6.4,6.4,0,0,1,.21,1.66,5.8,5.8,0,0,1-.31,2.14,3.59,3.59,0,0,1-.87,1.27,2.8,2.8,0,0,1-1.2.68,6,6,0,0,1-1.58.24H33.69ZM36.34,2.4V7.1H37a2.8,2.8,0,0,0,1.19-.19,1.31,1.31,0,0,0,.55-.64,4.14,4.14,0,0,0,.2-1.49,2.85,2.85,0,0,0-.45-1.87A1.88,1.88,0,0,0,37,2.4Z"/><path class="cls-1" d="M43,.46h7.11V2.29H45.64V3.66h4.13V5.41H45.64V7.1h4.58v2H43Z"/><path class="cls-1" d="M51.67.46h2.48l3.23,4.75V.46h2.5V9.05h-2.5L54.17,4.33V9.05h-2.5Z"/><path class="cls-1" d="M61,.46h8.07V2.58h-2.7V9.05H63.75V2.58H61Z"/><path class="cls-1" d="M96.33,15.39h8.07v2.12h-2.71V24H99V17.51h-2.7Z"/><path class="cls-1" d="M105.59,15.39h7.11v1.84h-4.45v1.36h4.13v1.75h-4.13V22h4.58V24h-7.24Z"/><path class="cls-1" d="M113.8,21.14l2.53-.16a1.85,1.85,0,0,0,.33.94,1.39,1.39,0,0,0,1.17.52,1.3,1.3,0,0,0,.88-.27.79.79,0,0,0,.3-.61.76.76,0,0,0-.29-.6,3.35,3.35,0,0,0-1.36-.5,5.85,5.85,0,0,1-2.49-1,2.11,2.11,0,0,1-.75-1.66,2.22,2.22,0,0,1,.39-1.25,2.58,2.58,0,0,1,1.15-.93,5.48,5.48,0,0,1,2.11-.33,4.29,4.29,0,0,1,2.51.61,2.64,2.64,0,0,1,1,1.95l-2.5.14a1.4,1.4,0,0,0-.42-.84,1.32,1.32,0,0,0-.88-.26,1.08,1.08,0,0,0-.7.19.62.62,0,0,0-.23.48.47.47,0,0,0,.19.37,2.27,2.27,0,0,0,.89.32,11.49,11.49,0,0,1,2.49.75,2.63,2.63,0,0,1,1.1,1,2.39,2.39,0,0,1,.34,1.27,2.73,2.73,0,0,1-.45,1.52,2.85,2.85,0,0,1-1.28,1.06,5.19,5.19,0,0,1-2.07.36,4.3,4.3,0,0,1-3-.84A3.34,3.34,0,0,1,113.8,21.14Z"/><path class="cls-1" d="M122.33,15.39h8.06v2.12h-2.7V24H125V17.51h-2.7Z"/><rect class="cls-2" y="14.85" width="74.88" height="9.6"/><rect class="cls-2" x="75.94" width="74.88" height="9.6"/></g></g></svg>